<svg width="1200" height="630" viewBox="0 0 1200 630" fill="none" xmlns="http://www.w3.org/2000/svg">
  <defs>
    <linearGradient id="bg" x1="0%" y1="0%" x2="100%" y2="100%">
      <stop offset="0%" stop-color="#7C3AED"/>
      <stop offset="100%" stop-color="#4F46E5"/>
    </linearGradient>
  </defs>

  <!-- Background -->
  <rect width="1200" height="630" fill="url(#bg)"/>

  <!-- Decorative circles -->
  <circle cx="50" cy="50" r="300" fill="white" fill-opacity="0.03"/>
  <circle cx="1150" cy="580" r="350" fill="white" fill-opacity="0.03"/>
  <circle cx="900" cy="100" r="150" fill="white" fill-opacity="0.05"/>

  <!-- Main content area -->
  <rect x="100" y="140" width="1000" height="350" rx="32" fill="white" fill-opacity="0.1"/>

  <!-- Icon box -->
  <rect x="160" y="200" width="100" height="100" rx="24" fill="white" fill-opacity="0.2"/>
  <text x="185" y="270" font-family="Arial, sans-serif" font-size="48" fill="white" font-weight="bold">T</text>

  <!-- Title -->
  <text x="300" y="250" font-family="'Noto Sans KR', Arial, sans-serif" font-size="56" font-weight="900" fill="white">직장인 꿀툴 모음</text>

  <!-- Subtitle -->
  <text x="300" y="310" font-family="'Noto Sans KR', Arial, sans-serif" font-size="26" fill="white" fill-opacity="0.85">연봉계산기 | 퇴직금계산기 | 심리테스트 | MBTI</text>

  <!-- Feature pills -->
  <rect x="300" y="350" width="140" height="44" rx="22" fill="white" fill-opacity="0.15"/>
  <text x="325" y="380" font-family="Arial, sans-serif" font-size="18" fill="white" font-weight="600">연봉 계산기</text>

  <rect x="460" y="350" width="150" height="44" rx="22" fill="white" fill-opacity="0.15"/>
  <text x="485" y="380" font-family="Arial, sans-serif" font-size="18" fill="white" font-weight="600">퇴직금 계산기</text>

  <rect x="630" y="350" width="130" height="44" rx="22" fill="white" fill-opacity="0.15"/>
  <text x="655" y="380" font-family="Arial, sans-serif" font-size="18" fill="white" font-weight="600">직장인 MBTI</text>

  <rect x="780" y="350" width="150" height="44" rx="22" fill="white" fill-opacity="0.15"/>
  <text x="800" y="380" font-family="Arial, sans-serif" font-size="18" fill="white" font-weight="600">스트레스 테스트</text>

  <!-- Badge -->
  <rect x="300" y="420" width="80" height="30" rx="15" fill="#10B981"/>
  <text x="317" y="441" font-family="Arial, sans-serif" font-size="14" fill="white" font-weight="bold">무료</text>

  <!-- Domain -->
  <text x="600" y="560" font-family="Arial, sans-serif" font-size="22" fill="white" fill-opacity="0.6" text-anchor="middle">viral-site-opal.vercel.app</text>
</svg>
